<?xml version="1.0" encoding="UTF-8"?>
<!DOCTYPE svg PUBLIC "-//W3C//DTD SVG 1.1//EN" "http://www.w3.org/Graphics/SVG/1.1/DTD/svg11.dtd">
<!-- Creator: CorelDRAW X7 -->
<svg xmlns="http://www.w3.org/2000/svg" xml:space="preserve" width="2539px" height="2539px" version="1.1" style="shape-rendering:geometricPrecision; text-rendering:geometricPrecision; image-rendering:optimizeQuality; fill-rule:evenodd; clip-rule:evenodd"
viewBox="0 0 2539 2539"
 xmlns:xlink="http://www.w3.org/1999/xlink">
 <defs>
  <style type="text/css">
   <![CDATA[
    .fil1 {fill:#212D1A}
    .fil0 {fill:#3A4635}
    .fil7 {fill:#4F544B}
    .fil5 {fill:#648A84}
    .fil3 {fill:#89BAB5}
    .fil10 {fill:#89BAB5}
    .fil6 {fill:#B5DED8}
    .fil8 {fill:#B8B7A8}
    .fil2 {fill:#CCC2B4}
    .fil9 {fill:#F5EEE2}
    .fil4 {fill:#FBFBF4}
   ]]>
  </style>
 </defs>
 <g id="Слой_x0020_1">
  <metadata id="CorelCorpID_0Corel-Layer"/>
  <path class="fil0" d="M1068 1848l4 -9c19,5 31,-7 33,-25 20,3 30,-7 29,-26 18,1 26,-5 30,-29 22,-5 18,-9 26,-30 10,7 12,5 20,14 14,15 30,5 19,22 0,1 -1,1 -1,2 -6,9 -3,4 -9,9l-2 3c-42,49 -14,145 68,146 69,0 111,-76 80,-126 -5,-9 -10,-16 -15,-22 -11,-16 -14,-6 -17,-23 3,-1 7,-2 11,-3 12,-3 6,0 12,-7l2 -3c6,-8 8,-8 15,-12 2,9 2,15 7,21 5,5 6,4 13,7l5 3c1,0 2,1 2,1 2,19 9,25 28,28 3,19 11,26 30,24 1,11 4,18 12,26 10,0 11,3 18,-2 10,12 9,18 31,13 4,5 6,11 13,14 12,5 19,-1 22,-1 7,1 20,21 37,-3 36,17 40,-27 43,-30 5,-7 17,-7 14,-24 -3,-22 -36,-28 -38,2 -13,0 -22,4 -24,14 -12,-10 -16,-4 -27,1 -9,-7 -11,-13 -26,-4 -11,-12 -14,-19 -28,-13 -7,-18 -9,-16 -29,-20 -6,-26 -18,-14 -25,-26 -5,-10 2,-22 -27,-27 -7,-17 -11,-25 -31,-22 6,-9 2,-13 -1,-22 10,-5 28,-7 40,-10 48,-16 97,-42 137,-72l30 -24c15,-11 39,-38 51,-53 110,-138 145,-311 73,-478 -25,-57 -46,-84 -80,-129 -27,-36 -74,-72 -112,-97 -71,-49 -121,-50 -148,-62 58,-19 54,-103 -11,-103 2,-2 5,-6 8,-9l94 -98c8,-8 24,-30 34,-35 -4,-13 -21,-27 -32,-37 -18,-17 -3,-14 -57,-14l-273 1c-12,0 -37,-4 -47,2 0,0 -9,8 -10,9 -9,8 -27,26 -33,38 9,13 24,24 35,37l67 71c8,8 10,10 17,18 6,6 10,13 17,16 -26,6 -49,13 -51,48 -2,30 21,50 42,57 -76,23 -109,30 -179,80 -6,4 -8,6 -14,11 -69,57 -109,110 -148,193 -51,109 -46,237 -5,348 29,81 88,156 157,208 9,7 20,14 31,21 21,14 44,25 68,37 25,12 63,20 78,26l-6 19c-9,5 -11,2 -17,9 -5,7 -2,13 -10,17 -27,14 -15,-2 -27,29 -27,9 -15,16 -26,23 -4,2 -10,2 -17,7 -6,4 -7,8 -10,13 -13,-4 -24,5 -28,13 -17,-9 -13,-4 -24,1 -7,4 -11,-4 -30,-1 -6,-8 -14,-18 -26,-11 7,-19 -17,-26 -29,-14 -15,15 -5,31 10,38 0,21 10,33 31,31 17,-2 23,20 43,-2 12,11 35,3 35,-13 8,12 18,2 28,0zm279 -145c2,-6 3,-27 24,-30 25,-4 16,1 51,-10 83,-25 141,-66 199,-125 22,-24 46,-54 63,-85 91,-168 74,-344 -36,-496l-13 -17c-12,-17 -29,-33 -44,-46 -6,-6 -9,-10 -16,-15l-16 -14c-88,-71 -232,-118 -368,-86 -64,15 -121,39 -166,70 -32,22 -27,22 -49,40 -16,13 -30,29 -43,44 -4,4 -4,5 -6,8 -89,108 -131,261 -91,401 20,69 51,132 90,175l77 74c32,24 76,48 115,63 13,5 29,11 43,14 19,5 37,2 47,15 5,6 3,14 25,32 7,6 14,5 20,11 9,7 16,20 40,13 20,-6 8,-5 17,-13 12,-9 9,4 21,-10 8,-10 3,-7 16,-13zm-85 -949c0,-5 2,-11 1,-16 -2,-12 -10,-8 -27,-27 -39,-41 -86,8 -37,34 19,10 41,10 63,9zm39 -21l0 19c34,10 97,-8 84,-42 -9,-22 -39,-16 -65,8 -7,7 -13,10 -19,15z"/>
  <path class="fil1" d="M1242 785c-81,6 -173,48 -233,97 -40,33 -27,25 -57,55 -77,79 -121,214 -113,326 19,246 250,427 483,402 91,-10 169,-40 236,-92 165,-128 222,-368 114,-554 -91,-156 -247,-247 -430,-234zm-5 59c-358,50 -441,473 -199,667 69,56 174,96 290,84 97,-10 190,-64 247,-133 98,-115 122,-291 40,-430 -78,-134 -225,-209 -378,-188z"/>
  <path class="fil1" d="M1244 900c-238,31 -336,297 -231,467 10,17 20,33 32,45 39,40 72,76 138,96 46,13 87,20 139,13 281,-39 360,-382 160,-551 -58,-49 -133,-84 -238,-70z"/>
  <path class="fil2" d="M1068 1848c9,-6 3,-4 11,-5 12,-1 21,7 31,16 2,26 -13,23 -22,16 -1,-1 -1,-1 -2,-2l-3 -3c-5,14 -2,1 -22,19 -8,7 -14,15 -16,27 -5,25 6,47 24,56 47,24 93,-34 64,-76 20,17 28,59 8,80 -22,23 -56,26 -85,8 18,35 41,33 67,33 19,1 10,-3 11,8 3,-3 1,1 3,-6l6 -21c5,3 5,2 5,16 16,-23 21,-40 40,-56 15,-12 40,-28 68,-28 -1,0 -1,0 -2,1l-22 14c-9,5 -19,9 -23,17 30,2 32,-18 70,6 11,7 13,11 16,28 9,66 -73,87 -106,48 -16,-19 -5,-11 -10,16 0,1 0,2 0,2 -1,1 -1,2 -1,3 -12,-2 -13,-18 -15,-28 -19,27 5,91 47,121 79,57 205,0 196,-110 -4,-42 -27,-73 -58,-95 -5,-4 -10,-4 -11,-10 15,-9 27,0 44,16 15,13 21,32 30,38 6,-9 12,23 12,24 2,4 2,4 3,6l-2 -10c41,4 71,-3 83,-32 -20,7 -32,19 -61,10 -21,-7 -41,-25 -37,-43 20,23 66,42 95,9 12,-13 15,-34 7,-53 -8,-18 -20,-23 -35,-35 -4,4 -6,8 -15,7 -19,-1 -21,-31 9,-27l2 -8c1,-8 -5,-1 -2,-6 -8,-8 -11,-15 -12,-26 -19,2 -27,-5 -30,-24 -19,-3 -26,-9 -28,-28 0,0 -1,-1 -2,-1l-5 -3c-7,-3 -8,-2 -13,-7 -5,-6 -5,-12 -7,-21 -7,4 -9,4 -15,12l-2 3c-6,7 0,4 -12,7 -4,1 -8,2 -11,3 3,17 6,7 17,23 5,6 10,13 15,22 31,50 -11,126 -80,126 -82,-1 -110,-97 -68,-146l2 -3c6,-5 3,0 9,-9 0,-1 1,-1 1,-2 11,-17 -5,-7 -19,-22 -8,-9 -10,-7 -20,-14 -8,21 -4,25 -26,30 -4,24 -12,30 -30,29 1,19 -9,29 -29,26 -2,18 -14,30 -33,25l-4 9z"/>
  <path class="fil3" d="M1348 1453c-9,3 -29,18 -40,25l-21 15c-4,-3 -21,-13 -27,-16 -14,-8 -8,-6 -17,-13l-18 -12c-6,-5 -6,-5 -11,-10l-21 -19c-30,-32 -45,-53 -66,-94 24,3 116,65 236,11 28,-12 36,-24 54,-41 12,-12 27,-42 34,-63 22,-65 16,-175 -24,-225l-6 -6c-1,32 -23,79 -36,102 -20,33 -42,54 -65,74 -53,44 -131,66 -217,53 4,57 21,75 23,92 -4,-5 -12,-11 -17,-18 -19,-23 -30,-34 -42,-64 -17,-41 -26,-73 -22,-123 5,-57 30,-111 74,-143l40 -31c-47,14 -94,65 -118,100 -47,70 -63,175 -34,261 5,13 10,27 16,38 15,28 28,41 45,63 12,16 16,14 30,27 0,0 1,0 1,1l14 9c13,9 40,27 54,30l-10 -10c-3,-3 -7,-5 -10,-8l-35 -39c-6,-8 -11,-15 -16,-24 -16,-33 -31,-78 -34,-119 6,8 16,35 23,47 13,24 41,62 58,81 29,31 79,69 120,89 31,15 47,-5 76,-31 5,-4 5,-3 9,-9z"/>
  <path class="fil4" d="M1159 947l-40 31c-44,32 -69,86 -74,143 -4,50 5,82 22,123 12,30 23,41 42,64 5,7 13,13 17,18 -2,-17 -19,-35 -23,-92 -1,-26 3,-54 9,-78 36,-5 33,8 98,-15 35,-13 77,-44 100,-72 5,-6 7,-9 13,-15l39 -48c8,-10 23,-20 21,-36 -9,-5 -8,-4 -16,-10 -6,-5 -11,-8 -18,-13 1,0 1,-1 2,-1 0,1 1,0 1,0 1,0 2,0 2,0 7,-1 18,5 24,7 5,2 9,3 14,5l12 9c30,16 64,54 82,87 23,43 33,82 32,138 12,-15 7,-68 5,-84 -11,-62 -55,-124 -105,-153 -9,-5 -9,-2 -15,-11 -9,-2 -28,-12 -55,-19 -63,-15 -134,-5 -189,22z"/>
  <path class="fil0" d="M506 1466c3,3 2,2 5,5 0,0 3,2 3,3 18,14 49,28 73,29 42,1 45,-26 84,-33 31,-7 75,11 76,36 1,25 -39,50 -63,49 18,4 36,-56 -1,-71 -48,-20 -81,55 -25,83 29,14 64,0 85,-19 15,-14 12,-19 22,-36 15,-1 31,0 44,5 5,21 -13,44 -25,56 -33,31 -80,40 -124,22 -29,-12 -31,-15 -46,-38 0,0 0,1 -1,2l-3 10c-43,-15 -42,-10 -57,-34 -60,-91 -200,-63 -207,-48 -8,17 51,68 91,78 54,15 85,1 120,3 14,1 24,6 34,8 -52,15 -139,14 -181,68 -8,10 -32,38 -26,55 24,18 76,10 101,-3 29,-15 49,-40 63,-63 -29,-17 -44,21 -75,35 9,-18 57,-53 72,-62 13,-9 33,-15 50,-17 20,-2 35,8 50,15 -35,3 -69,9 -91,30 -7,7 -40,55 -42,72 32,6 68,-22 85,-34 23,-17 48,-34 81,-45 34,-12 66,-9 95,-30 22,-16 49,-36 49,-77 25,6 57,30 71,30 1,-13 -11,-18 -22,-23 -42,-21 -55,-26 -108,-28 -12,-16 -16,-34 -59,-43 -33,-7 -55,-12 -87,-12 22,-18 71,-22 100,-30 -8,-7 -49,-16 -59,-17 -23,-4 -43,-3 -66,2 -20,5 -39,15 -50,24 -11,9 -31,27 -36,43z"/>
  <path class="fil0" d="M1845 1414c24,5 86,13 99,30 -28,-1 -112,8 -135,41 -4,6 -5,10 -9,15 -33,0 -48,2 -77,12 -17,7 -50,21 -54,36 13,7 45,-25 72,-27 -1,18 8,35 16,44 48,58 63,42 126,62 80,25 93,77 171,81 -2,-17 -37,-66 -46,-74 -29,-28 -45,-21 -88,-31 18,1 19,-32 90,-1 15,6 62,39 70,56 -30,-9 -37,-40 -68,-27 10,11 18,23 29,35 40,39 85,56 140,34 1,-24 -16,-45 -27,-57 -72,-73 -129,-40 -178,-67 62,-20 111,15 181,-23 19,-11 59,-43 64,-63 -17,-26 -113,-22 -155,-1 -58,28 -51,60 -76,68 -11,4 -27,12 -35,13 -1,-1 -3,-5 -3,-5 -4,-3 0,-2 -6,-3 -4,6 -3,6 -7,11 -30,34 -108,48 -159,-1 -11,-10 -29,-31 -27,-55 12,-5 31,-6 44,-5 8,9 13,43 57,56 36,11 69,-4 78,-30 11,-33 -19,-68 -51,-53 -35,17 -21,73 -1,70 -46,-3 -96,-51 -37,-79 60,-29 86,28 135,26 28,0 71,-21 80,-38 -12,-31 -55,-56 -84,-65 -28,-8 -69,-3 -98,4l-26 7c-8,4 -1,1 -5,4z"/>
  <path class="fil5" d="M1404 967c1,8 -2,1 5,9 5,4 4,0 7,7 1,3 4,19 5,22l6 6c40,50 46,160 24,225 -7,21 -22,51 -34,63 -18,17 -26,29 -54,41 -120,54 -212,-8 -236,-11 21,41 36,62 66,94l21 19c5,5 5,5 11,10l18 12c9,7 3,5 17,13 6,3 23,13 27,16l21 -15c11,-7 31,-22 40,-25 0,0 1,-1 1,-1l44 -52c24,-28 83,-111 101,-142 4,-6 14,-26 18,-30 0,53 -15,106 -33,147 -5,11 -10,18 -16,28 -4,6 -5,9 -9,14 -5,6 -7,6 -12,12l-38 40c0,1 -2,3 -2,3l-4 5c9,-2 30,-14 37,-18 28,-15 62,-46 81,-70l10 -16c1,-1 4,-5 6,-8 3,-5 6,-11 10,-18 18,-31 35,-96 32,-133 -5,-78 -29,-146 -75,-198l-28 -28c-7,-9 -7,-5 -16,-12 -15,-12 -32,-28 -52,-32 6,9 6,6 15,11 50,29 94,91 105,153 2,16 7,69 -5,84 1,-56 -9,-95 -32,-138 -18,-33 -52,-71 -82,-87z"/>
  <path class="fil1" d="M649 1201c-9,-8 -8,-8 -15,-16 -31,-40 -90,-84 -145,-78 2,24 48,68 76,80 49,20 76,13 108,47l105 127c7,9 10,13 18,22 6,8 9,17 20,19 0,-11 -8,-19 -13,-27 -5,-9 -8,-16 -12,-27l-14 -46c-4,-16 -1,-6 -8,-14 -7,7 -3,-7 -5,14 0,3 1,8 0,13 -15,-6 -51,-90 -43,-118 4,-15 23,-36 31,-52 8,-16 20,-51 11,-68 -12,-13 -61,18 -65,79 -3,45 15,84 27,119l-39 -47c-12,-15 -24,-33 -36,-52 -78,-123 -48,-114 -83,-184 -23,-44 -41,-69 -79,-98 -10,-8 -43,-32 -61,-28 -9,23 7,99 15,119 21,52 60,84 108,103 10,4 17,5 27,7 19,5 20,25 45,60 7,11 23,33 27,46z"/>
  <path class="fil1" d="M1838 1278c15,-25 30,-84 29,-120 -1,-24 -9,-41 -20,-57 -32,-43 -74,-39 -35,43 18,38 61,55 4,149l-12 18c-3,3 -1,3 -5,3l-4 -41 -19 69c-10,31 -29,50 -28,57 9,4 50,-50 55,-57l88 -107c37,-37 57,-25 107,-48 31,-15 76,-52 79,-81 -32,-3 -81,18 -99,33 -25,18 -51,55 -64,64 1,-5 45,-72 52,-85 23,-39 24,-10 90,-51 25,-16 50,-45 64,-78 12,-31 25,-87 18,-123 -18,-4 -50,20 -60,27 -19,14 -31,27 -46,45 -24,31 -46,75 -57,121 -11,42 -39,88 -60,119 -11,16 -66,95 -77,100z"/>
  <path class="fil1" d="M1512 2053c11,20 35,-5 41,-13 2,20 -9,19 -16,32 13,9 8,16 17,28 7,-34 13,-28 25,-38 -8,-5 -17,-9 -17,-23 1,-8 21,-30 34,-48 6,-10 10,-18 16,-26 5,33 15,53 43,73 95,72 183,-45 118,-114 -5,-5 -9,-8 -14,-15 11,-16 26,-32 20,-62 -15,-77 -120,-75 -134,3 -6,35 14,11 -19,64 -26,41 -41,91 -88,121 -14,9 -23,11 -26,18z"/>
  <path class="fil1" d="M804 1910c-18,20 -39,36 -35,78 9,99 150,91 177,0 2,-4 2,-6 3,-11l4 -12c17,42 48,63 49,74 1,16 -10,16 -18,23 13,13 18,-2 25,37 9,-14 1,-18 17,-26 -3,-10 -7,-8 -11,-14 -3,-5 -5,-12 -5,-18 1,2 29,35 42,12 -10,-14 -45,-10 -84,-84l-45 -80c-10,-16 -3,-19 -5,-37 -4,-41 -51,-80 -99,-53 -15,8 -31,25 -35,48 -5,31 8,47 20,63z"/>
  <path class="fil6" d="M1103 1234c86,13 164,-9 217,-53 23,-20 45,-41 65,-74 13,-23 35,-70 36,-102 -1,-3 -4,-19 -5,-22 -3,-7 -2,-3 -7,-7 -7,-8 -4,-1 -5,-9l-12 -9c-5,-2 -9,-3 -14,-5 -6,-2 -17,-8 -24,-7 0,0 -1,0 -2,0 0,0 -1,1 -1,0 -1,0 -1,1 -2,1 7,5 12,8 18,13 8,6 7,5 16,10 2,16 -13,26 -21,36l-39 48c-6,6 -8,9 -13,15 -23,28 -65,59 -100,72 -65,23 -62,10 -98,15 -6,24 -10,52 -9,78z"/>
  <path class="fil1" d="M587 1339c-10,-1 -30,-14 -41,-20 -36,-19 -122,-40 -147,-24 2,13 25,32 35,39 35,28 70,36 116,35 13,0 61,-4 70,-7 -1,-11 -10,-15 -27,-34 -74,-84 -33,-63 -64,-119 -23,-43 -80,-92 -151,-94 -29,-1 -31,3 -23,29 5,16 11,27 19,41 17,30 33,49 57,66 32,23 49,23 92,29 18,3 25,15 34,26 13,14 27,25 30,33z"/>
  <path class="fil1" d="M1946 1362c30,10 105,8 135,-2 29,-9 47,-23 68,-43 7,-6 16,-13 15,-24 -47,-10 -105,6 -147,27 -11,5 -28,17 -40,18 15,-12 41,-53 61,-57 42,-9 59,-3 94,-28 35,-25 60,-62 76,-105 10,-27 10,-34 -21,-33 -74,2 -125,51 -151,94 -23,38 -3,54 -49,101l-28 32c-7,6 -13,10 -13,20z"/>
  <path class="fil7" d="M712 1058c16,-4 24,-30 50,-18 3,10 2,3 1,10 -2,11 -2,-6 -3,11 11,0 16,0 17,-12 3,-28 -26,-31 -48,-20 9,-31 45,-24 76,-35 53,-21 81,-70 61,-104 -13,-21 -61,-7 -85,10 -7,5 -11,8 -15,12l-12 15c0,-7 8,-36 10,-44 7,-17 20,-17 38,-22 101,-26 81,-54 98,-81 8,-13 14,-29 15,-46 1,-19 -5,-36 -14,-48 -4,-6 -8,-10 -15,-16 -8,-6 -15,-8 -22,-4 5,8 4,4 11,11 4,3 7,7 10,11 34,38 7,74 -1,92 -55,-3 -69,23 -91,41 -8,7 -5,3 -11,11l-6 8c-4,6 -3,-2 -1,3 -1,-6 15,-66 16,-86 0,-13 -5,-42 -3,-50 2,-5 4,-6 8,-10 15,-17 35,-32 29,-55 -4,-15 -19,-21 -35,-16 -29,9 -23,50 -18,80 10,66 -6,115 -23,178 -9,31 -38,147 -37,174z"/>
  <path class="fil0" d="M1791 841c-25,-35 -60,-67 -110,-60 -8,-22 -25,-36 -16,-69 8,-30 27,-30 39,-47 -28,-7 -55,33 -55,64 0,17 6,37 14,48 20,29 3,19 19,42 30,45 107,33 119,62 3,7 11,39 12,46 -18,-16 -30,-36 -67,-45 -55,-12 -60,29 -47,59 34,75 136,47 137,88 -8,-7 -28,-8 -38,-1 -10,6 -20,34 8,33 -15,-57 40,-5 47,-3 2,-30 -27,-140 -37,-172 -17,-56 -31,-120 -22,-180 4,-30 10,-68 -18,-79 -24,-10 -61,13 -11,63 6,6 7,6 11,14 8,14 -4,48 6,96 3,15 8,26 9,41z"/>
  <path class="fil1" d="M907 1751c-51,-4 -46,1 -78,-26 60,31 116,-8 127,-52 23,-94 -106,-147 -156,-70 -16,24 -18,52 -8,82 18,51 52,94 107,72 6,-3 4,-1 8,-6z"/>
  <path class="fil1" d="M1736 1725c-35,36 -61,22 -73,29 25,18 58,6 76,-10 11,-11 27,-44 34,-66 17,-58 -26,-111 -80,-112 -54,-2 -99,50 -84,108 13,49 75,84 127,51z"/>
  <path class="fil0" d="M2053 1850c10,-58 -70,-175 -152,-189 -16,-2 -37,5 -50,-3 -11,-6 -24,-18 -40,-19 2,13 3,8 14,16 28,21 26,21 35,50 33,99 148,167 193,145z"/>
  <path class="fil8" d="M879 1906c0,0 0,-1 0,-1 -1,0 -1,-1 -1,-1 0,0 -1,-1 -1,-1 0,0 0,-1 0,-1 -1,0 -3,0 -5,-1 -11,-5 -4,-3 -12,-7 0,4 -18,6 -23,8 -11,4 -12,6 -20,12 -46,36 -45,103 14,122 57,18 147,-48 78,-135l-7 8c-3,4 -3,4 -6,7 -9,0 -14,-2 -17,-10z"/>
  <path class="fil0" d="M887 1516c3,-11 -6,-13 -25,-28 -23,-19 -50,-38 -71,-59 -65,-63 -71,-116 -98,-143 -4,-4 -6,-4 -10,-9l-20 -17c-25,-17 -54,-29 -86,-28 -2,21 46,91 59,109 9,12 15,19 27,28 43,33 51,17 137,86l62 50c14,9 17,14 25,11z"/>
  <path class="fil0" d="M1674 1515c10,6 33,-14 46,-24l61 -50c72,-59 106,-39 156,-109 17,-24 33,-56 47,-83l3 -10c0,-5 1,-3 -1,-6 -34,-7 -88,29 -103,43 -11,10 -23,27 -32,42 -10,17 -16,32 -26,48 -11,17 -20,31 -31,43 -13,16 -19,18 -29,27l-51 42c-10,7 -39,27 -40,37z"/>
  <path class="fil8" d="M1682 1904c1,0 3,4 4,5 -7,4 -5,4 -14,8 -7,-3 -14,-9 -18,-17 -33,29 -38,109 17,125 53,15 101,-46 62,-94 20,6 39,28 34,57 -6,31 -26,39 -42,53 31,-9 62,-39 49,-83 -15,-56 -69,-57 -74,-65 -6,9 -3,10 -18,11z"/>
  <path class="fil1" d="M1148 2014c-5,31 -11,41 -4,76 14,66 80,117 150,110 50,-5 89,-36 108,-64 43,-64 12,-119 9,-139 -9,-6 -15,-25 -30,-38 -17,-16 -29,-25 -44,-16 1,6 6,6 11,10 31,22 54,53 58,95 9,110 -117,167 -196,110 -42,-30 -66,-94 -47,-121 -2,-27 30,-70 46,-75 4,-8 14,-12 23,-17l22 -14c1,-1 1,-1 2,-1 -28,0 -53,16 -68,28 -19,16 -24,33 -40,56z"/>
  <path class="fil1" d="M816 1752c-115,-15 -187,104 -167,118 24,16 80,-5 107,-30 11,-9 59,-68 60,-88z"/>
  <path class="fil1" d="M1919 1869c0,-34 -42,-75 -59,-88 -32,-25 -66,-31 -115,-30 3,17 48,74 64,89 23,22 66,43 110,29z"/>
  <path class="fil8" d="M1219 1803c-17,25 -5,70 24,87 82,48 147,-46 99,-98 -6,-7 -15,-18 -24,-23 -14,-8 -37,-13 -52,-5 21,2 24,6 33,23 28,53 -62,84 -72,30 -2,-1 -3,-1 -3,-1 -1,0 -2,0 -2,0l-4 -2c3,-5 2,-4 1,-11z"/>
  <path class="fil4" d="M1209 1962c-16,5 -48,48 -46,75 2,10 3,26 15,28 0,-1 0,-2 1,-3 0,0 0,-1 0,-2 5,-27 -6,-35 10,-16 33,39 115,18 106,-48 -3,-17 -5,-21 -16,-28 -38,-24 -40,-4 -70,-6z"/>
  <path class="fil1" d="M1003 1659c-79,24 -39,134 32,111 75,-24 36,-133 -32,-111z"/>
  <path class="fil1" d="M1532 1658c-74,18 -49,130 26,114 27,-6 51,-34 44,-70 -6,-25 -37,-53 -70,-44z"/>
  <path class="fil8" d="M845 1586c36,-7 49,31 34,56 -15,25 -49,25 -62,-5 1,7 -4,9 -6,16 -1,5 -3,14 0,16 0,15 2,4 -6,7 24,52 101,54 128,4 21,-38 -2,-84 -42,-97 -13,-4 -37,-7 -46,3z"/>
  <path class="fil8" d="M1669 1585c56,1 45,77 -1,75 -15,-1 -23,-11 -30,-19 0,11 -2,14 -2,28l-7 -8c-10,-11 2,9 -3,-2 -4,-7 -2,-15 -1,-22 -12,13 2,55 34,72 65,35 132,-42 89,-97 -22,-28 -59,-41 -79,-27z"/>
  <path class="fil7" d="M1829 751c3,-3 4,-3 8,-14 5,-15 21,-58 31,-68 4,-4 6,-4 10,-8l20 -20c11,-11 18,-25 19,-42 6,-60 -61,-74 -82,-39 -16,26 1,40 10,59 17,39 -17,91 -16,132z"/>
  <path class="fil7" d="M736 751c0,-43 -36,-93 -16,-133 8,-16 23,-35 9,-57 -33,-52 -110,2 -73,68l28 31c12,10 14,6 26,33 4,9 9,19 12,28 4,12 6,23 14,30z"/>
  <path class="fil1" d="M1202 2118c9,47 109,77 168,4 20,-26 28,-64 14,-100 -10,-25 -41,-62 -74,-60l2 3c17,14 32,19 43,55 23,76 -45,142 -120,116 -16,-6 -23,-13 -33,-18z"/>
  <path class="fil9" d="M860 1894c8,4 1,2 12,7 2,1 4,1 5,1 0,0 0,1 0,1 0,0 1,1 1,1 0,0 0,1 1,1 0,0 0,1 0,1 43,-37 18,-113 -40,-100 -37,9 -52,59 -22,84 12,9 25,1 43,4z"/>
  <path class="fil9" d="M1682 1904c15,-1 12,-2 18,-11 18,-4 54,13 61,-30 9,-55 -71,-83 -94,-29 -14,32 2,53 15,70z"/>
  <path class="fil1" d="M697 761c-8,-10 -34,-16 -49,-40 -8,-12 -3,-12 -1,-25 6,-39 -39,-58 -64,-34 -42,41 18,101 114,99z"/>
  <path class="fil1" d="M1870 761c65,10 164,-52 109,-100 -28,-24 -68,1 -62,37 1,10 6,11 1,21 -11,21 -31,28 -48,42z"/>
  <path class="fil2" d="M1007 1669c-53,9 -42,96 19,86 21,-4 41,-26 33,-53 -5,-19 -26,-37 -52,-33z"/>
  <path class="fil1" d="M1134 2025c-1,-11 8,-7 -11,-8 -26,0 -49,2 -67,-33 29,18 63,15 85,-8 20,-21 12,-63 -8,-80 29,42 -17,100 -64,76 -18,-9 -29,-31 -24,-56 2,-12 8,-20 16,-27 20,-18 17,-5 22,-19 -19,-2 -41,22 -47,35 -13,30 0,136 67,131 18,-1 22,-9 31,-11z"/>
  <path class="fil2" d="M1534 1669c-21,3 -38,30 -32,54 5,20 26,39 53,31 50,-14 40,-93 -21,-85z"/>
  <path class="fil1" d="M1426 2027c23,4 38,19 67,0 35,-23 48,-91 32,-124 -10,-21 -40,-41 -49,-30 15,12 27,17 35,35 8,19 5,40 -7,53 -29,33 -75,14 -95,-9 -4,18 16,36 37,43 29,9 41,-3 61,-10 -12,29 -42,36 -83,32l2 10z"/>
  <path class="fil4" d="M1219 1803c1,7 2,6 -1,11l4 2c0,0 1,0 2,0 0,0 1,0 3,1 10,54 100,23 72,-30 -9,-17 -12,-21 -33,-23 -25,2 -37,20 -47,39z"/>
  <path class="fil4" d="M1625 1637c-1,7 -3,15 1,22 5,11 -7,-9 3,2l7 8c0,-14 2,-17 2,-28 7,8 15,18 30,19 46,2 57,-74 1,-75 -21,2 -46,28 -44,52z"/>
  <path class="fil4" d="M805 1676c8,-3 6,8 6,-7 -3,-2 -1,-11 0,-16 2,-7 7,-9 6,-16 13,30 47,30 62,5 15,-25 2,-63 -34,-56 -16,2 -28,16 -36,31 -13,27 -6,33 -4,59z"/>
  <path class="fil3" d="M1712 896c-4,13 -5,20 1,34 11,31 40,40 73,40 -14,-14 -45,-46 -56,-54 25,4 37,18 52,28 4,3 7,3 11,7 5,5 5,7 9,12 11,10 1,-4 21,21 2,-9 -8,-23 -14,-33 -2,-3 -2,-5 -3,-7 -5,-9 -11,-16 -19,-21 -8,-6 -6,-7 -14,-12 -19,-13 -39,-17 -61,-15z"/>
  <path class="fil6" d="M1940 668c-21,13 -1,52 24,37 25,-14 3,-55 -24,-37z"/>
  <path class="fil0" d="M509 1850c42,20 122,-34 152,-70 13,-16 13,-12 25,-33 26,-42 12,-57 37,-80 5,-4 10,-8 15,-12 13,-8 14,-6 16,-15 -9,-3 -30,10 -36,15 -17,13 -29,3 -52,6 -50,7 -108,59 -130,102 -12,23 -30,58 -27,87z"/>
  <path class="fil6" d="M602 665c-26,6 -13,52 16,41 26,-10 13,-49 -16,-41z"/>
  <path class="fil0" d="M1699 1838c-11,4 -18,11 -15,26 3,12 15,18 29,13 23,-10 14,-51 -14,-39z"/>
  <path class="fil0" d="M847 1839c-26,14 1,52 23,36 20,-14 2,-49 -23,-36z"/>
  <polygon class="fil10" points="1348,484 1384,535 1461,530 1410,485 "/>
  <polygon class="fil10" points="1290,483 1330,484 1366,535 1290,536 "/>
  <polygon class="fil10" points="1426,484 1474,528 1490,517 1458,485 "/>
  <polygon class="fil10" points="1274,483 1234,484 1199,535 1274,536 "/>
  <polygon class="fil10" points="1216,484 1181,535 1104,530 1155,485 "/>
  <polygon class="fil10" points="1139,484 1090,528 1074,517 1107,485 "/>
  <polygon class="fil10" points="1111,548 1179,555 1262,704 "/>
  <polygon class="fil10" points="1200,553 1274,701 1276,553 "/>
  <polygon class="fil10" points="1456,548 1388,555 1305,704 "/>
  <polygon class="fil10" points="1367,553 1293,701 1291,553 "/>
  <polygon class="fil4" points="1222,501 1274,488 1274,483 1234,484 "/>
  <polygon class="fil4" points="1107,530 1201,507 1216,484 1155,485 1104,530 "/>
  <polygon class="fil4" points="1139,484 1090,528 1074,517 1107,485 "/>
  <polygon class="fil5" points="1276,586 1249,651 1200,553 1276,553 "/>
  <polygon class="fil5" points="1242,668 1238,679 1111,548 1179,555 "/>
 </g>
</svg>
